solid OpenSCAD_Model
  facet normal -1 0 0
    outer loop
      vertex 0 0 0
      vertex 0 7 8
      vertex 0 7 0
    endloop
  endfacet
  facet normal -1 -0 0
    outer loop
      vertex 0 7 8
      vertex 0 0 0
      vertex 0 0 8
    endloop
  endfacet
  facet normal -0 0 1
    outer loop
      vertex 2.5 14 8
      vertex 4.5 10.3 8
      vertex 4.5 14 8
    endloop
  endfacet
  facet normal 0 0 1
    outer loop
      vertex 4.5 10.3 8
      vertex 2.5 14 8
      vertex 2.5 10.3 8
    endloop
  endfacet
  facet normal 0 0 1
    outer loop
      vertex 1.5 7 8
      vertex 0 7 8
      vertex 1.5 1 8
    endloop
  endfacet
  facet normal 0 0 1
    outer loop
      vertex 5.5 1 8
      vertex 7 7 8
      vertex 5.5 7 8
    endloop
  endfacet
  facet normal 0 0 1
    outer loop
      vertex 7 7 8
      vertex 5.5 1 8
      vertex 7 0 8
    endloop
  endfacet
  facet normal -0 0 1
    outer loop
      vertex 1.5 1 8
      vertex 7 0 8
      vertex 5.5 1 8
    endloop
  endfacet
  facet normal 0 0 1
    outer loop
      vertex 1.5 1 8
      vertex 0 0 8
      vertex 7 0 8
    endloop
  endfacet
  facet normal 0 0 1
    outer loop
      vertex 0 0 8
      vertex 1.5 1 8
      vertex 0 7 8
    endloop
  endfacet
  facet normal 1 -0 0
    outer loop
      vertex 7 0 8
      vertex 7 7 0
      vertex 7 7 8
    endloop
  endfacet
  facet normal 1 0 0
    outer loop
      vertex 7 7 0
      vertex 7 0 8
      vertex 7 0 0
    endloop
  endfacet
  facet normal 0 1 0
    outer loop
      vertex 7 7 8
      vertex 5.5 7 1
      vertex 5.5 7 8
    endloop
  endfacet
  facet normal 0 1 -0
    outer loop
      vertex 7 7 0
      vertex 5.5 7 1
      vertex 7 7 8
    endloop
  endfacet
  facet normal 0 1 0
    outer loop
      vertex 4.5 7 0
      vertex 5.5 7 1
      vertex 7 7 0
    endloop
  endfacet
  facet normal 0 1 0
    outer loop
      vertex 5.5 7 1
      vertex 4.5 7 0
      vertex 4.5 7 1
    endloop
  endfacet
  facet normal 0 1 0
    outer loop
      vertex 2.5 7 1
      vertex 2.5 7 0
      vertex 1.5 7 1
    endloop
  endfacet
  facet normal 0 1 -0
    outer loop
      vertex 1.5 7 1
      vertex 0 7 8
      vertex 1.5 7 8
    endloop
  endfacet
  facet normal 0 1 0
    outer loop
      vertex 1.5 7 1
      vertex 0 7 0
      vertex 0 7 8
    endloop
  endfacet
  facet normal 0 1 0
    outer loop
      vertex 0 7 0
      vertex 1.5 7 1
      vertex 2.5 7 0
    endloop
  endfacet
  facet normal 0 0 -1
    outer loop
      vertex 7 0 0
      vertex 4.5 7 0
      vertex 7 7 0
    endloop
  endfacet
  facet normal 0 0 -1
    outer loop
      vertex 4.5 7 0
      vertex 2.5 7 0
      vertex 4.5 14 0
    endloop
  endfacet
  facet normal 0 0 -1
    outer loop
      vertex 7 0 0
      vertex 2.5 7 0
      vertex 4.5 7 0
    endloop
  endfacet
  facet normal 0 0 -1
    outer loop
      vertex 0 0 0
      vertex 2.5 7 0
      vertex 7 0 0
    endloop
  endfacet
  facet normal -0 0 -1
    outer loop
      vertex 2.5 7 0
      vertex 0 0 0
      vertex 0 7 0
    endloop
  endfacet
  facet normal -0 0 -1
    outer loop
      vertex 4.5 14 0
      vertex 2.5 7 0
      vertex 2.5 14 0
    endloop
  endfacet
  facet normal 0 -1 0
    outer loop
      vertex 0 0 0
      vertex 7 0 8
      vertex 0 0 8
    endloop
  endfacet
  facet normal 0 -1 -0
    outer loop
      vertex 7 0 8
      vertex 0 0 0
      vertex 7 0 0
    endloop
  endfacet
  facet normal -1 0 0
    outer loop
      vertex 2.5 14 0
      vertex 2.5 10.3 1
      vertex 2.5 14 8
    endloop
  endfacet
  facet normal -1 0 0
    outer loop
      vertex 2.5 7 0
      vertex 2.5 10.3 1
      vertex 2.5 14 0
    endloop
  endfacet
  facet normal -1 -0 0
    outer loop
      vertex 2.5 10.3 1
      vertex 2.5 7 0
      vertex 2.5 7 1
    endloop
  endfacet
  facet normal -1 -0 0
    outer loop
      vertex 2.5 14 8
      vertex 2.5 10.3 1
      vertex 2.5 10.3 8
    endloop
  endfacet
  facet normal 1 0 0
    outer loop
      vertex 4.5 10.3 1
      vertex 4.5 14 8
      vertex 4.5 10.3 8
    endloop
  endfacet
  facet normal 1 0 0
    outer loop
      vertex 4.5 14 8
      vertex 4.5 10.3 1
      vertex 4.5 14 0
    endloop
  endfacet
  facet normal 1 0 0
    outer loop
      vertex 4.5 7 0
      vertex 4.5 10.3 1
      vertex 4.5 7 1
    endloop
  endfacet
  facet normal 1 0 0
    outer loop
      vertex 4.5 10.3 1
      vertex 4.5 7 0
      vertex 4.5 14 0
    endloop
  endfacet
  facet normal 0 1 -0
    outer loop
      vertex 4.5 14 0
      vertex 2.5 14 8
      vertex 4.5 14 8
    endloop
  endfacet
  facet normal 0 1 0
    outer loop
      vertex 2.5 14 8
      vertex 4.5 14 0
      vertex 2.5 14 0
    endloop
  endfacet
  facet normal 1 -0 0
    outer loop
      vertex 1.5 1 8
      vertex 1.5 7 1
      vertex 1.5 7 8
    endloop
  endfacet
  facet normal 1 0 0
    outer loop
      vertex 1.5 7 1
      vertex 1.5 1 8
      vertex 1.5 1 1
    endloop
  endfacet
  facet normal -1 0 0
    outer loop
      vertex 5.5 1 1
      vertex 5.5 7 8
      vertex 5.5 7 1
    endloop
  endfacet
  facet normal -1 -0 0
    outer loop
      vertex 5.5 7 8
      vertex 5.5 1 1
      vertex 5.5 1 8
    endloop
  endfacet
  facet normal 0 -1 0
    outer loop
      vertex 2.5 10.3 1
      vertex 4.5 10.3 8
      vertex 2.5 10.3 8
    endloop
  endfacet
  facet normal 0 -1 -0
    outer loop
      vertex 4.5 10.3 8
      vertex 2.5 10.3 1
      vertex 4.5 10.3 1
    endloop
  endfacet
  facet normal 0 0 1
    outer loop
      vertex 4.5 10.3 1
      vertex 2.5 10.3 1
      vertex 4.5 7 1
    endloop
  endfacet
  facet normal -0 0 1
    outer loop
      vertex 4.5 7 1
      vertex 5.5 1 1
      vertex 5.5 7 1
    endloop
  endfacet
  facet normal 0 0 1
    outer loop
      vertex 2.5 7 1
      vertex 4.5 7 1
      vertex 2.5 10.3 1
    endloop
  endfacet
  facet normal 0 0 1
    outer loop
      vertex 4.5 7 1
      vertex 2.5 7 1
      vertex 5.5 1 1
    endloop
  endfacet
  facet normal 0 0 1
    outer loop
      vertex 1.5 1 1
      vertex 2.5 7 1
      vertex 1.5 7 1
    endloop
  endfacet
  facet normal 0 0 1
    outer loop
      vertex 2.5 7 1
      vertex 1.5 1 1
      vertex 5.5 1 1
    endloop
  endfacet
  facet normal 0 1 -0
    outer loop
      vertex 5.5 1 1
      vertex 1.5 1 8
      vertex 5.5 1 8
    endloop
  endfacet
  facet normal 0 1 0
    outer loop
      vertex 1.5 1 8
      vertex 5.5 1 1
      vertex 1.5 1 1
    endloop
  endfacet
  facet normal -1 0 0
    outer loop
      vertex 10 0 0
      vertex 10 7 8
      vertex 10 7 0
    endloop
  endfacet
  facet normal -1 -0 0
    outer loop
      vertex 10 7 8
      vertex 10 0 0
      vertex 10 0 8
    endloop
  endfacet
  facet normal -0 0 1
    outer loop
      vertex 12.5 14 8
      vertex 14.5 10.3 8
      vertex 14.5 14 8
    endloop
  endfacet
  facet normal 0 0 1
    outer loop
      vertex 14.5 10.3 8
      vertex 12.5 14 8
      vertex 12.5 10.3 8
    endloop
  endfacet
  facet normal 0 0 1
    outer loop
      vertex 11.5 7 8
      vertex 10 7 8
      vertex 11.5 1 8
    endloop
  endfacet
  facet normal 0 0 1
    outer loop
      vertex 15.5 1 8
      vertex 17 7 8
      vertex 15.5 7 8
    endloop
  endfacet
  facet normal 0 0 1
    outer loop
      vertex 17 7 8
      vertex 15.5 1 8
      vertex 17 0 8
    endloop
  endfacet
  facet normal -0 0 1
    outer loop
      vertex 11.5 1 8
      vertex 17 0 8
      vertex 15.5 1 8
    endloop
  endfacet
  facet normal 0 0 1
    outer loop
      vertex 11.5 1 8
      vertex 10 0 8
      vertex 17 0 8
    endloop
  endfacet
  facet normal 0 0 1
    outer loop
      vertex 10 0 8
      vertex 11.5 1 8
      vertex 10 7 8
    endloop
  endfacet
  facet normal 1 -0 0
    outer loop
      vertex 17 0 8
      vertex 17 7 0
      vertex 17 7 8
    endloop
  endfacet
  facet normal 1 0 0
    outer loop
      vertex 17 7 0
      vertex 17 0 8
      vertex 17 0 0
    endloop
  endfacet
  facet normal 0 1 0
    outer loop
      vertex 17 7 8
      vertex 15.5 7 1
      vertex 15.5 7 8
    endloop
  endfacet
  facet normal 0 1 -0
    outer loop
      vertex 17 7 0
      vertex 15.5 7 1
      vertex 17 7 8
    endloop
  endfacet
  facet normal 0 1 0
    outer loop
      vertex 14.5 7 0
      vertex 15.5 7 1
      vertex 17 7 0
    endloop
  endfacet
  facet normal 0 1 0
    outer loop
      vertex 15.5 7 1
      vertex 14.5 7 0
      vertex 14.5 7 1
    endloop
  endfacet
  facet normal 0 1 0
    outer loop
      vertex 12.5 7 1
      vertex 12.5 7 0
      vertex 11.5 7 1
    endloop
  endfacet
  facet normal 0 1 -0
    outer loop
      vertex 11.5 7 1
      vertex 10 7 8
      vertex 11.5 7 8
    endloop
  endfacet
  facet normal 0 1 0
    outer loop
      vertex 11.5 7 1
      vertex 10 7 0
      vertex 10 7 8
    endloop
  endfacet
  facet normal 0 1 0
    outer loop
      vertex 10 7 0
      vertex 11.5 7 1
      vertex 12.5 7 0
    endloop
  endfacet
  facet normal 0 0 -1
    outer loop
      vertex 17 0 0
      vertex 14.5 7 0
      vertex 17 7 0
    endloop
  endfacet
  facet normal 0 0 -1
    outer loop
      vertex 14.5 7 0
      vertex 12.5 7 0
      vertex 14.5 14 0
    endloop
  endfacet
  facet normal 0 0 -1
    outer loop
      vertex 17 0 0
      vertex 12.5 7 0
      vertex 14.5 7 0
    endloop
  endfacet
  facet normal 0 0 -1
    outer loop
      vertex 10 0 0
      vertex 12.5 7 0
      vertex 17 0 0
    endloop
  endfacet
  facet normal -0 0 -1
    outer loop
      vertex 12.5 7 0
      vertex 10 0 0
      vertex 10 7 0
    endloop
  endfacet
  facet normal -0 0 -1
    outer loop
      vertex 14.5 14 0
      vertex 12.5 7 0
      vertex 12.5 14 0
    endloop
  endfacet
  facet normal 0 -1 0
    outer loop
      vertex 10 0 0
      vertex 17 0 8
      vertex 10 0 8
    endloop
  endfacet
  facet normal 0 -1 -0
    outer loop
      vertex 17 0 8
      vertex 10 0 0
      vertex 17 0 0
    endloop
  endfacet
  facet normal -1 0 0
    outer loop
      vertex 12.5 14 0
      vertex 12.5 10.3 1
      vertex 12.5 14 8
    endloop
  endfacet
  facet normal -1 0 0
    outer loop
      vertex 12.5 7 0
      vertex 12.5 10.3 1
      vertex 12.5 14 0
    endloop
  endfacet
  facet normal -1 -0 0
    outer loop
      vertex 12.5 10.3 1
      vertex 12.5 7 0
      vertex 12.5 7 1
    endloop
  endfacet
  facet normal -1 -0 0
    outer loop
      vertex 12.5 14 8
      vertex 12.5 10.3 1
      vertex 12.5 10.3 8
    endloop
  endfacet
  facet normal 1 0 0
    outer loop
      vertex 14.5 10.3 1
      vertex 14.5 14 8
      vertex 14.5 10.3 8
    endloop
  endfacet
  facet normal 1 0 0
    outer loop
      vertex 14.5 14 8
      vertex 14.5 10.3 1
      vertex 14.5 14 0
    endloop
  endfacet
  facet normal 1 0 0
    outer loop
      vertex 14.5 7 0
      vertex 14.5 10.3 1
      vertex 14.5 7 1
    endloop
  endfacet
  facet normal 1 0 0
    outer loop
      vertex 14.5 10.3 1
      vertex 14.5 7 0
      vertex 14.5 14 0
    endloop
  endfacet
  facet normal 0 1 -0
    outer loop
      vertex 14.5 14 0
      vertex 12.5 14 8
      vertex 14.5 14 8
    endloop
  endfacet
  facet normal 0 1 0
    outer loop
      vertex 12.5 14 8
      vertex 14.5 14 0
      vertex 12.5 14 0
    endloop
  endfacet
  facet normal 1 -0 0
    outer loop
      vertex 11.5 1 8
      vertex 11.5 7 1
      vertex 11.5 7 8
    endloop
  endfacet
  facet normal 1 0 0
    outer loop
      vertex 11.5 7 1
      vertex 11.5 1 8
      vertex 11.5 1 1
    endloop
  endfacet
  facet normal -1 0 0
    outer loop
      vertex 15.5 1 1
      vertex 15.5 7 8
      vertex 15.5 7 1
    endloop
  endfacet
  facet normal -1 -0 0
    outer loop
      vertex 15.5 7 8
      vertex 15.5 1 1
      vertex 15.5 1 8
    endloop
  endfacet
  facet normal 0 -1 0
    outer loop
      vertex 12.5 10.3 1
      vertex 14.5 10.3 8
      vertex 12.5 10.3 8
    endloop
  endfacet
  facet normal 0 -1 -0
    outer loop
      vertex 14.5 10.3 8
      vertex 12.5 10.3 1
      vertex 14.5 10.3 1
    endloop
  endfacet
  facet normal 0 0 1
    outer loop
      vertex 14.5 10.3 1
      vertex 12.5 10.3 1
      vertex 14.5 7 1
    endloop
  endfacet
  facet normal -0 0 1
    outer loop
      vertex 14.5 7 1
      vertex 15.5 1 1
      vertex 15.5 7 1
    endloop
  endfacet
  facet normal 0 0 1
    outer loop
      vertex 12.5 7 1
      vertex 14.5 7 1
      vertex 12.5 10.3 1
    endloop
  endfacet
  facet normal 0 0 1
    outer loop
      vertex 14.5 7 1
      vertex 12.5 7 1
      vertex 15.5 1 1
    endloop
  endfacet
  facet normal 0 0 1
    outer loop
      vertex 11.5 1 1
      vertex 12.5 7 1
      vertex 11.5 7 1
    endloop
  endfacet
  facet normal 0 0 1
    outer loop
      vertex 12.5 7 1
      vertex 11.5 1 1
      vertex 15.5 1 1
    endloop
  endfacet
  facet normal 0 1 -0
    outer loop
      vertex 15.5 1 1
      vertex 11.5 1 8
      vertex 15.5 1 8
    endloop
  endfacet
  facet normal 0 1 0
    outer loop
      vertex 11.5 1 8
      vertex 15.5 1 1
      vertex 11.5 1 1
    endloop
  endfacet
  facet normal -1 0 0
    outer loop
      vertex 20 0 0
      vertex 20 7 8
      vertex 20 7 0
    endloop
  endfacet
  facet normal -1 -0 0
    outer loop
      vertex 20 7 8
      vertex 20 0 0
      vertex 20 0 8
    endloop
  endfacet
  facet normal -0 0 1
    outer loop
      vertex 22.5 14 8
      vertex 24.5 10.3 8
      vertex 24.5 14 8
    endloop
  endfacet
  facet normal 0 0 1
    outer loop
      vertex 24.5 10.3 8
      vertex 22.5 14 8
      vertex 22.5 10.3 8
    endloop
  endfacet
  facet normal 0 0 1
    outer loop
      vertex 21.5 7 8
      vertex 20 7 8
      vertex 21.5 1 8
    endloop
  endfacet
  facet normal 0 0 1
    outer loop
      vertex 25.5 1 8
      vertex 27 7 8
      vertex 25.5 7 8
    endloop
  endfacet
  facet normal 0 0 1
    outer loop
      vertex 27 7 8
      vertex 25.5 1 8
      vertex 27 0 8
    endloop
  endfacet
  facet normal -0 0 1
    outer loop
      vertex 21.5 1 8
      vertex 27 0 8
      vertex 25.5 1 8
    endloop
  endfacet
  facet normal 0 0 1
    outer loop
      vertex 21.5 1 8
      vertex 20 0 8
      vertex 27 0 8
    endloop
  endfacet
  facet normal 0 0 1
    outer loop
      vertex 20 0 8
      vertex 21.5 1 8
      vertex 20 7 8
    endloop
  endfacet
  facet normal 1 -0 0
    outer loop
      vertex 27 0 8
      vertex 27 7 0
      vertex 27 7 8
    endloop
  endfacet
  facet normal 1 0 0
    outer loop
      vertex 27 7 0
      vertex 27 0 8
      vertex 27 0 0
    endloop
  endfacet
  facet normal 0 1 0
    outer loop
      vertex 27 7 8
      vertex 25.5 7 1
      vertex 25.5 7 8
    endloop
  endfacet
  facet normal 0 1 -0
    outer loop
      vertex 27 7 0
      vertex 25.5 7 1
      vertex 27 7 8
    endloop
  endfacet
  facet normal 0 1 0
    outer loop
      vertex 24.5 7 0
      vertex 25.5 7 1
      vertex 27 7 0
    endloop
  endfacet
  facet normal 0 1 0
    outer loop
      vertex 25.5 7 1
      vertex 24.5 7 0
      vertex 24.5 7 1
    endloop
  endfacet
  facet normal 0 1 0
    outer loop
      vertex 22.5 7 1
      vertex 22.5 7 0
      vertex 21.5 7 1
    endloop
  endfacet
  facet normal 0 1 -0
    outer loop
      vertex 21.5 7 1
      vertex 20 7 8
      vertex 21.5 7 8
    endloop
  endfacet
  facet normal 0 1 0
    outer loop
      vertex 21.5 7 1
      vertex 20 7 0
      vertex 20 7 8
    endloop
  endfacet
  facet normal 0 1 0
    outer loop
      vertex 20 7 0
      vertex 21.5 7 1
      vertex 22.5 7 0
    endloop
  endfacet
  facet normal 0 0 -1
    outer loop
      vertex 27 0 0
      vertex 24.5 7 0
      vertex 27 7 0
    endloop
  endfacet
  facet normal 0 0 -1
    outer loop
      vertex 24.5 7 0
      vertex 22.5 7 0
      vertex 24.5 14 0
    endloop
  endfacet
  facet normal 0 0 -1
    outer loop
      vertex 27 0 0
      vertex 22.5 7 0
      vertex 24.5 7 0
    endloop
  endfacet
  facet normal 0 0 -1
    outer loop
      vertex 20 0 0
      vertex 22.5 7 0
      vertex 27 0 0
    endloop
  endfacet
  facet normal -0 0 -1
    outer loop
      vertex 22.5 7 0
      vertex 20 0 0
      vertex 20 7 0
    endloop
  endfacet
  facet normal -0 0 -1
    outer loop
      vertex 24.5 14 0
      vertex 22.5 7 0
      vertex 22.5 14 0
    endloop
  endfacet
  facet normal 0 -1 0
    outer loop
      vertex 20 0 0
      vertex 27 0 8
      vertex 20 0 8
    endloop
  endfacet
  facet normal 0 -1 -0
    outer loop
      vertex 27 0 8
      vertex 20 0 0
      vertex 27 0 0
    endloop
  endfacet
  facet normal -1 0 0
    outer loop
      vertex 22.5 14 0
      vertex 22.5 10.3 1
      vertex 22.5 14 8
    endloop
  endfacet
  facet normal -1 0 0
    outer loop
      vertex 22.5 7 0
      vertex 22.5 10.3 1
      vertex 22.5 14 0
    endloop
  endfacet
  facet normal -1 -0 0
    outer loop
      vertex 22.5 10.3 1
      vertex 22.5 7 0
      vertex 22.5 7 1
    endloop
  endfacet
  facet normal -1 -0 0
    outer loop
      vertex 22.5 14 8
      vertex 22.5 10.3 1
      vertex 22.5 10.3 8
    endloop
  endfacet
  facet normal 1 0 0
    outer loop
      vertex 24.5 10.3 1
      vertex 24.5 14 8
      vertex 24.5 10.3 8
    endloop
  endfacet
  facet normal 1 0 0
    outer loop
      vertex 24.5 14 8
      vertex 24.5 10.3 1
      vertex 24.5 14 0
    endloop
  endfacet
  facet normal 1 0 0
    outer loop
      vertex 24.5 7 0
      vertex 24.5 10.3 1
      vertex 24.5 7 1
    endloop
  endfacet
  facet normal 1 0 0
    outer loop
      vertex 24.5 10.3 1
      vertex 24.5 7 0
      vertex 24.5 14 0
    endloop
  endfacet
  facet normal 0 1 -0
    outer loop
      vertex 24.5 14 0
      vertex 22.5 14 8
      vertex 24.5 14 8
    endloop
  endfacet
  facet normal 0 1 0
    outer loop
      vertex 22.5 14 8
      vertex 24.5 14 0
      vertex 22.5 14 0
    endloop
  endfacet
  facet normal 1 -0 0
    outer loop
      vertex 21.5 1 8
      vertex 21.5 7 1
      vertex 21.5 7 8
    endloop
  endfacet
  facet normal 1 0 0
    outer loop
      vertex 21.5 7 1
      vertex 21.5 1 8
      vertex 21.5 1 1
    endloop
  endfacet
  facet normal -1 0 0
    outer loop
      vertex 25.5 1 1
      vertex 25.5 7 8
      vertex 25.5 7 1
    endloop
  endfacet
  facet normal -1 -0 0
    outer loop
      vertex 25.5 7 8
      vertex 25.5 1 1
      vertex 25.5 1 8
    endloop
  endfacet
  facet normal 0 -1 0
    outer loop
      vertex 22.5 10.3 1
      vertex 24.5 10.3 8
      vertex 22.5 10.3 8
    endloop
  endfacet
  facet normal 0 -1 -0
    outer loop
      vertex 24.5 10.3 8
      vertex 22.5 10.3 1
      vertex 24.5 10.3 1
    endloop
  endfacet
  facet normal 0 0 1
    outer loop
      vertex 24.5 10.3 1
      vertex 22.5 10.3 1
      vertex 24.5 7 1
    endloop
  endfacet
  facet normal -0 0 1
    outer loop
      vertex 24.5 7 1
      vertex 25.5 1 1
      vertex 25.5 7 1
    endloop
  endfacet
  facet normal 0 0 1
    outer loop
      vertex 22.5 7 1
      vertex 24.5 7 1
      vertex 22.5 10.3 1
    endloop
  endfacet
  facet normal 0 0 1
    outer loop
      vertex 24.5 7 1
      vertex 22.5 7 1
      vertex 25.5 1 1
    endloop
  endfacet
  facet normal 0 0 1
    outer loop
      vertex 21.5 1 1
      vertex 22.5 7 1
      vertex 21.5 7 1
    endloop
  endfacet
  facet normal 0 0 1
    outer loop
      vertex 22.5 7 1
      vertex 21.5 1 1
      vertex 25.5 1 1
    endloop
  endfacet
  facet normal 0 1 -0
    outer loop
      vertex 25.5 1 1
      vertex 21.5 1 8
      vertex 25.5 1 8
    endloop
  endfacet
  facet normal 0 1 0
    outer loop
      vertex 21.5 1 8
      vertex 25.5 1 1
      vertex 21.5 1 1
    endloop
  endfacet
endsolid OpenSCAD_Model
