solid OpenSCAD_Model
  facet normal -0.974239 -5.00752e-17 0.225518
    outer loop
      vertex -2.9 -10 0
      vertex -1.65 -9.96974e-16 5.4
      vertex -2.9 3.55148e-16 2.22045e-15
    endloop
  endfacet
  facet normal -0.974239 0 0.225518
    outer loop
      vertex -1.65 -9.96974e-16 5.4
      vertex -2.9 -10 0
      vertex -1.65 -10 5.4
    endloop
  endfacet
  facet normal 0 -1 0
    outer loop
      vertex -1.65 -10 5.4
      vertex 1.65 -10 10
      vertex -1.65 -10 10
    endloop
  endfacet
  facet normal 0 -1 0
    outer loop
      vertex -1.65 -10 5.4
      vertex 1.65 -10 5.4
      vertex 1.65 -10 10
    endloop
  endfacet
  facet normal 0 -1 0
    outer loop
      vertex -2.9 -10 0
      vertex 1.65 -10 5.4
      vertex -1.65 -10 5.4
    endloop
  endfacet
  facet normal 0 -1 -0
    outer loop
      vertex 1.65 -10 5.4
      vertex -2.9 -10 0
      vertex 2.9 -10 0
    endloop
  endfacet
  facet normal 0.974239 -0 0.225518
    outer loop
      vertex 1.65 -10 5.4
      vertex 2.9 -3.55148e-16 2.22045e-15
      vertex 1.65 -1.40111e-15 5.4
    endloop
  endfacet
  facet normal 0.974239 -5.00752e-17 0.225518
    outer loop
      vertex 2.9 -3.55148e-16 2.22045e-15
      vertex 1.65 -10 5.4
      vertex 2.9 -10 0
    endloop
  endfacet
  facet normal 0 2.22045e-16 -1
    outer loop
      vertex 2.9 -10 0
      vertex 1.65 -2.02067e-16 2.22045e-15
      vertex 2.9 -3.55148e-16 2.22045e-15
    endloop
  endfacet
  facet normal 2.71926e-32 2.22044e-16 -1
    outer loop
      vertex 1.65 -2.02067e-16 2.22045e-15
      vertex -1.65 2.02067e-16 2.22045e-15
      vertex 1.65 5 3.33067e-15
    endloop
  endfacet
  facet normal 0 2.22045e-16 -1
    outer loop
      vertex 2.9 -10 0
      vertex -1.65 2.02067e-16 2.22045e-15
      vertex 1.65 -2.02067e-16 2.22045e-15
    endloop
  endfacet
  facet normal 0 2.22045e-16 -1
    outer loop
      vertex -2.9 -10 0
      vertex -1.65 2.02067e-16 2.22045e-15
      vertex 2.9 -10 0
    endloop
  endfacet
  facet normal 2.71927e-32 2.22045e-16 -1
    outer loop
      vertex -1.65 2.02067e-16 2.22045e-15
      vertex -2.9 -10 0
      vertex -2.9 3.55148e-16 2.22045e-15
    endloop
  endfacet
  facet normal 0 2.22044e-16 -1
    outer loop
      vertex 1.65 5 3.33067e-15
      vertex -1.65 2.02067e-16 2.22045e-15
      vertex -1.65 5 3.33067e-15
    endloop
  endfacet
  facet normal 1.22465e-16 1 2.22045e-16
    outer loop
      vertex -1.65 2.02067e-16 2.22045e-15
      vertex -2.9 3.55148e-16 2.22045e-15
      vertex -1.65 -9.96974e-16 5.4
    endloop
  endfacet
  facet normal 1.22465e-16 1 2.22045e-16
    outer loop
      vertex 1.65 -2.02067e-16 2.22045e-15
      vertex 1.65 -1.40111e-15 5.4
      vertex 2.9 -3.55148e-16 2.22045e-15
    endloop
  endfacet
  facet normal 1 -0 0
    outer loop
      vertex 1.65 -1.40111e-15 5.4
      vertex 1.65 5 3.33067e-15
      vertex 1.65 5 10
    endloop
  endfacet
  facet normal 1 0 0
    outer loop
      vertex 1.65 5 3.33067e-15
      vertex 1.65 -1.40111e-15 5.4
      vertex 1.65 -2.02067e-16 2.22045e-15
    endloop
  endfacet
  facet normal 1 -0 0
    outer loop
      vertex 1.65 -10 10
      vertex 1.65 -1.40111e-15 5.4
      vertex 1.65 5 10
    endloop
  endfacet
  facet normal 1 0 0
    outer loop
      vertex 1.65 -1.40111e-15 5.4
      vertex 1.65 -10 10
      vertex 1.65 -10 5.4
    endloop
  endfacet
  facet normal 0 1 -0
    outer loop
      vertex 1.65 5 3.33067e-15
      vertex -1.65 5 10
      vertex 1.65 5 10
    endloop
  endfacet
  facet normal 0 1 0
    outer loop
      vertex -1.65 5 10
      vertex 1.65 5 3.33067e-15
      vertex -1.65 5 3.33067e-15
    endloop
  endfacet
  facet normal -1 0 0
    outer loop
      vertex -1.65 -9.96974e-16 5.4
      vertex -1.65 5 3.33067e-15
      vertex -1.65 2.02067e-16 2.22045e-15
    endloop
  endfacet
  facet normal -1 0 0
    outer loop
      vertex -1.65 5 3.33067e-15
      vertex -1.65 -9.96974e-16 5.4
      vertex -1.65 5 10
    endloop
  endfacet
  facet normal -1 0 0
    outer loop
      vertex -1.65 -10 10
      vertex -1.65 -9.96974e-16 5.4
      vertex -1.65 -10 5.4
    endloop
  endfacet
  facet normal -1 0 0
    outer loop
      vertex -1.65 -9.96974e-16 5.4
      vertex -1.65 -10 10
      vertex -1.65 5 10
    endloop
  endfacet
  facet normal -0 0 1
    outer loop
      vertex -1.65 5 10
      vertex 1.65 -10 10
      vertex 1.65 5 10
    endloop
  endfacet
  facet normal 0 0 1
    outer loop
      vertex 1.65 -10 10
      vertex -1.65 5 10
      vertex -1.65 -10 10
    endloop
  endfacet
  facet normal -0.974239 -5.00752e-17 0.225518
    outer loop
      vertex 7.1 -10 0
      vertex 8.35 -9.96974e-16 5.4
      vertex 7.1 3.55148e-16 2.22045e-15
    endloop
  endfacet
  facet normal -0.974239 0 0.225518
    outer loop
      vertex 8.35 -9.96974e-16 5.4
      vertex 7.1 -10 0
      vertex 8.35 -10 5.4
    endloop
  endfacet
  facet normal 0 -1 0
    outer loop
      vertex 8.35 -10 5.4
      vertex 11.65 -10 10
      vertex 8.35 -10 10
    endloop
  endfacet
  facet normal 0 -1 0
    outer loop
      vertex 8.35 -10 5.4
      vertex 11.65 -10 5.4
      vertex 11.65 -10 10
    endloop
  endfacet
  facet normal 0 -1 0
    outer loop
      vertex 7.1 -10 0
      vertex 11.65 -10 5.4
      vertex 8.35 -10 5.4
    endloop
  endfacet
  facet normal 0 -1 -0
    outer loop
      vertex 11.65 -10 5.4
      vertex 7.1 -10 0
      vertex 12.9 -10 0
    endloop
  endfacet
  facet normal 0.974239 -0 0.225518
    outer loop
      vertex 11.65 -10 5.4
      vertex 12.9 -3.55148e-16 2.22045e-15
      vertex 11.65 -1.40111e-15 5.4
    endloop
  endfacet
  facet normal 0.974239 -5.00752e-17 0.225518
    outer loop
      vertex 12.9 -3.55148e-16 2.22045e-15
      vertex 11.65 -10 5.4
      vertex 12.9 -10 0
    endloop
  endfacet
  facet normal 0 2.22045e-16 -1
    outer loop
      vertex 12.9 -10 0
      vertex 11.65 -2.02067e-16 2.22045e-15
      vertex 12.9 -3.55148e-16 2.22045e-15
    endloop
  endfacet
  facet normal 2.71926e-32 2.22044e-16 -1
    outer loop
      vertex 11.65 -2.02067e-16 2.22045e-15
      vertex 8.35 2.02067e-16 2.22045e-15
      vertex 11.65 10 4.44089e-15
    endloop
  endfacet
  facet normal 0 2.22045e-16 -1
    outer loop
      vertex 12.9 -10 0
      vertex 8.35 2.02067e-16 2.22045e-15
      vertex 11.65 -2.02067e-16 2.22045e-15
    endloop
  endfacet
  facet normal 0 2.22045e-16 -1
    outer loop
      vertex 7.1 -10 0
      vertex 8.35 2.02067e-16 2.22045e-15
      vertex 12.9 -10 0
    endloop
  endfacet
  facet normal 2.71927e-32 2.22045e-16 -1
    outer loop
      vertex 8.35 2.02067e-16 2.22045e-15
      vertex 7.1 -10 0
      vertex 7.1 3.55148e-16 2.22045e-15
    endloop
  endfacet
  facet normal 0 2.22044e-16 -1
    outer loop
      vertex 11.65 10 4.44089e-15
      vertex 8.35 2.02067e-16 2.22045e-15
      vertex 8.35 10 4.44089e-15
    endloop
  endfacet
  facet normal 1.22465e-16 1 2.22045e-16
    outer loop
      vertex 8.35 2.02067e-16 2.22045e-15
      vertex 7.1 3.55148e-16 2.22045e-15
      vertex 8.35 -9.96974e-16 5.4
    endloop
  endfacet
  facet normal 1.22465e-16 1 2.22045e-16
    outer loop
      vertex 11.65 -2.02067e-16 2.22045e-15
      vertex 11.65 -1.40111e-15 5.4
      vertex 12.9 -3.55148e-16 2.22045e-15
    endloop
  endfacet
  facet normal 1 -0 0
    outer loop
      vertex 11.65 -1.40111e-15 5.4
      vertex 11.65 10 4.44089e-15
      vertex 11.65 10 10
    endloop
  endfacet
  facet normal 1 0 0
    outer loop
      vertex 11.65 10 4.44089e-15
      vertex 11.65 -1.40111e-15 5.4
      vertex 11.65 -2.02067e-16 2.22045e-15
    endloop
  endfacet
  facet normal 1 -0 0
    outer loop
      vertex 11.65 -10 10
      vertex 11.65 -1.40111e-15 5.4
      vertex 11.65 10 10
    endloop
  endfacet
  facet normal 1 0 0
    outer loop
      vertex 11.65 -1.40111e-15 5.4
      vertex 11.65 -10 10
      vertex 11.65 -10 5.4
    endloop
  endfacet
  facet normal 0 1 -0
    outer loop
      vertex 11.65 10 4.44089e-15
      vertex 8.35 10 10
      vertex 11.65 10 10
    endloop
  endfacet
  facet normal 0 1 0
    outer loop
      vertex 8.35 10 10
      vertex 11.65 10 4.44089e-15
      vertex 8.35 10 4.44089e-15
    endloop
  endfacet
  facet normal -1 0 0
    outer loop
      vertex 8.35 -9.96974e-16 5.4
      vertex 8.35 10 4.44089e-15
      vertex 8.35 2.02067e-16 2.22045e-15
    endloop
  endfacet
  facet normal -1 0 0
    outer loop
      vertex 8.35 10 4.44089e-15
      vertex 8.35 -9.96974e-16 5.4
      vertex 8.35 10 10
    endloop
  endfacet
  facet normal -1 0 0
    outer loop
      vertex 8.35 -10 10
      vertex 8.35 -9.96974e-16 5.4
      vertex 8.35 -10 5.4
    endloop
  endfacet
  facet normal -1 0 0
    outer loop
      vertex 8.35 -9.96974e-16 5.4
      vertex 8.35 -10 10
      vertex 8.35 10 10
    endloop
  endfacet
  facet normal -0 0 1
    outer loop
      vertex 8.35 10 10
      vertex 11.65 -10 10
      vertex 11.65 10 10
    endloop
  endfacet
  facet normal 0 0 1
    outer loop
      vertex 11.65 -10 10
      vertex 8.35 10 10
      vertex 8.35 -10 10
    endloop
  endfacet
  facet normal -0.974239 -5.00752e-17 0.225518
    outer loop
      vertex 17.1 -10 0
      vertex 18.35 -9.96974e-16 5.4
      vertex 17.1 3.55148e-16 2.22045e-15
    endloop
  endfacet
  facet normal -0.974239 0 0.225518
    outer loop
      vertex 18.35 -9.96974e-16 5.4
      vertex 17.1 -10 0
      vertex 18.35 -10 5.4
    endloop
  endfacet
  facet normal 0 -1 0
    outer loop
      vertex 18.35 -10 5.4
      vertex 21.65 -10 10
      vertex 18.35 -10 10
    endloop
  endfacet
  facet normal 0 -1 0
    outer loop
      vertex 18.35 -10 5.4
      vertex 21.65 -10 5.4
      vertex 21.65 -10 10
    endloop
  endfacet
  facet normal 0 -1 0
    outer loop
      vertex 17.1 -10 0
      vertex 21.65 -10 5.4
      vertex 18.35 -10 5.4
    endloop
  endfacet
  facet normal 0 -1 -0
    outer loop
      vertex 21.65 -10 5.4
      vertex 17.1 -10 0
      vertex 22.9 -10 0
    endloop
  endfacet
  facet normal 0.974239 -0 0.225518
    outer loop
      vertex 21.65 -10 5.4
      vertex 22.9 -3.55148e-16 2.22045e-15
      vertex 21.65 -1.40111e-15 5.4
    endloop
  endfacet
  facet normal 0.974239 -5.00752e-17 0.225518
    outer loop
      vertex 22.9 -3.55148e-16 2.22045e-15
      vertex 21.65 -10 5.4
      vertex 22.9 -10 0
    endloop
  endfacet
  facet normal 0 2.22045e-16 -1
    outer loop
      vertex 22.9 -10 0
      vertex 21.65 -2.02067e-16 2.22045e-15
      vertex 22.9 -3.55148e-16 2.22045e-15
    endloop
  endfacet
  facet normal 2.71927e-32 2.22045e-16 -1
    outer loop
      vertex 21.65 -2.02067e-16 2.22045e-15
      vertex 18.35 2.02067e-16 2.22045e-15
      vertex 21.65 15 5.55112e-15
    endloop
  endfacet
  facet normal 0 2.22045e-16 -1
    outer loop
      vertex 22.9 -10 0
      vertex 18.35 2.02067e-16 2.22045e-15
      vertex 21.65 -2.02067e-16 2.22045e-15
    endloop
  endfacet
  facet normal 0 2.22045e-16 -1
    outer loop
      vertex 17.1 -10 0
      vertex 18.35 2.02067e-16 2.22045e-15
      vertex 22.9 -10 0
    endloop
  endfacet
  facet normal 2.71927e-32 2.22045e-16 -1
    outer loop
      vertex 18.35 2.02067e-16 2.22045e-15
      vertex 17.1 -10 0
      vertex 17.1 3.55148e-16 2.22045e-15
    endloop
  endfacet
  facet normal 0 2.22045e-16 -1
    outer loop
      vertex 21.65 15 5.55112e-15
      vertex 18.35 2.02067e-16 2.22045e-15
      vertex 18.35 15 5.55112e-15
    endloop
  endfacet
  facet normal 1.22465e-16 1 2.22045e-16
    outer loop
      vertex 18.35 2.02067e-16 2.22045e-15
      vertex 17.1 3.55148e-16 2.22045e-15
      vertex 18.35 -9.96974e-16 5.4
    endloop
  endfacet
  facet normal 1.22465e-16 1 2.22045e-16
    outer loop
      vertex 21.65 -2.02067e-16 2.22045e-15
      vertex 21.65 -1.40111e-15 5.4
      vertex 22.9 -3.55148e-16 2.22045e-15
    endloop
  endfacet
  facet normal 1 -0 0
    outer loop
      vertex 21.65 -1.40111e-15 5.4
      vertex 21.65 15 5.55112e-15
      vertex 21.65 15 10
    endloop
  endfacet
  facet normal 1 0 0
    outer loop
      vertex 21.65 15 5.55112e-15
      vertex 21.65 -1.40111e-15 5.4
      vertex 21.65 -2.02067e-16 2.22045e-15
    endloop
  endfacet
  facet normal 1 -0 0
    outer loop
      vertex 21.65 -10 10
      vertex 21.65 -1.40111e-15 5.4
      vertex 21.65 15 10
    endloop
  endfacet
  facet normal 1 0 0
    outer loop
      vertex 21.65 -1.40111e-15 5.4
      vertex 21.65 -10 10
      vertex 21.65 -10 5.4
    endloop
  endfacet
  facet normal 0 1 -0
    outer loop
      vertex 21.65 15 5.55112e-15
      vertex 18.35 15 10
      vertex 21.65 15 10
    endloop
  endfacet
  facet normal 0 1 0
    outer loop
      vertex 18.35 15 10
      vertex 21.65 15 5.55112e-15
      vertex 18.35 15 5.55112e-15
    endloop
  endfacet
  facet normal -1 0 0
    outer loop
      vertex 18.35 -9.96974e-16 5.4
      vertex 18.35 15 5.55112e-15
      vertex 18.35 2.02067e-16 2.22045e-15
    endloop
  endfacet
  facet normal -1 0 0
    outer loop
      vertex 18.35 15 5.55112e-15
      vertex 18.35 -9.96974e-16 5.4
      vertex 18.35 15 10
    endloop
  endfacet
  facet normal -1 0 0
    outer loop
      vertex 18.35 -10 10
      vertex 18.35 -9.96974e-16 5.4
      vertex 18.35 -10 5.4
    endloop
  endfacet
  facet normal -1 0 0
    outer loop
      vertex 18.35 -9.96974e-16 5.4
      vertex 18.35 -10 10
      vertex 18.35 15 10
    endloop
  endfacet
  facet normal -0 0 1
    outer loop
      vertex 18.35 15 10
      vertex 21.65 -10 10
      vertex 21.65 15 10
    endloop
  endfacet
  facet normal 0 0 1
    outer loop
      vertex 21.65 -10 10
      vertex 18.35 15 10
      vertex 18.35 -10 10
    endloop
  endfacet
endsolid OpenSCAD_Model
